<?xml version="1.0" encoding="UTF-8"?>
<svg version="1.1" viewBox="0 0 1600 1600" width="1280" height="1280" xmlns="http://www.w3.org/2000/svg">
<path transform="translate(800 835)" d="m0 0c0.851 6.85e-4 1.7 0.00137 2.58 0.00208 23.7 0.063 23.7 0.063 28.1 2.25 2.12 0.312 4.24 0.619 6.37 0.899 21.5 2.86 42.2 9.61 61.6 19.1 0.982 0.46 1.96 0.92 2.98 1.39 5.9 2.83 11.2 5.98 16.5 9.84 2.68 1.86 5.44 3.44 8.3 5.02 21.6 12.4 41.6 32.5 57.2 51.8 0.818 1 0.818 1 1.65 2.02 13.4 16.8 26.3 35.9 34.3 56 0.335 0.83 0.67 1.66 1.02 2.52 0.658 1.64 1.31 3.28 1.96 4.93 0.769 1.91 1.59 3.81 2.43 5.69 2.05 4.76 3.55 9.68 5.1 14.6 0.295 0.926 0.59 1.85 0.895 2.8 4.06 12.9 7.69 25.9 9.23 39.3 0.0322 2.99 0.0322 2.99 1.38 4.12 0.989 7.33 1.1 14.7 1.12 22.1 0.00459 0.734 0.00918 1.47 0.0139 2.22-0.00918 3.15-0.135 5.64-1.14 8.65-3.09 1.54-6.34 1.14-9.73 1.13-0.812 0.00175-1.62 0.00351-2.46 0.00531-2.75 0.00469-5.5 0.00219-8.25-2.34e-4 -1.98 0.00187-3.96 0.00417-5.94 0.00687-5.46 0.00615-10.9 0.00598-16.4 0.00481-5.88-2.03e-4 -11.8 0.00531-17.6 0.0101-11.5 0.00832-23.1 0.0111-34.6 0.0116-9.37 4.59e-4 -18.7 0.00251-28.1 0.0057-2.69 8.97e-4 -5.39 0.00179-8.08 0.00267-0.67 2.21e-4 -1.34 4.42e-4 -2.03 6.7e-4 -18.8 0.00616-37.7 0.0101-56.5 0.00966-1.07-2.34e-5 -1.07-2.34e-5 -2.15-4.72e-5 -3.6-8.31e-5 -7.21-1.82e-4 -10.8-2.85e-4 -0.716-1.99e-5 -1.43-3.99e-5 -2.17-6.04e-5 -1.45-4.04e-5 -2.89-8.22e-5 -4.34-1.25e-4 -22.5-6.13e-4 -45 0.0069-67.6 0.0206-25.3 0.0153-50.6 0.024-75.9 0.023-2.69-7.46e-5 -5.39-1.23e-4 -8.08-1.54e-4 -0.663-1.17e-5 -1.33-2.33e-5 -2.01-3.53e-5 -10-2.89e-5 -20.1 0.00533-30.1 0.0134-11.4 0.00908-22.8 0.0113-34.2 0.00449-5.82-0.00328-11.6-0.00327-17.5 0.00535-5.32 0.00781-10.6 0.0065-16-0.00228-1.93-0.00155-3.87 3.3e-4 -5.8 0.00586-2.61 0.00699-5.23 0.00182-7.84-0.00656-0.762 0.00497-1.52 0.00994-2.31 0.0151-3.74-0.0256-5.36-0.136-8.55-2.26-6.23-9.52-0.722-27.5 1-38 0.16-0.979 0.321-1.96 0.486-2.97 0.491-2.95 0.998-5.9 1.51-8.84 0.154-0.9 0.307-1.8 0.466-2.73 0.989-5.46 2.5-10.3 4.53-15.5 0.551-2.21 0.969-4.39 1.38-6.63 0.691-2.62 1.71-5.02 2.8-7.5 1.35-3.09 2.58-6.23 3.82-9.37 5.08-12.8 5.08-12.8 7.88-18.3 0.336-0.664 0.673-1.33 1.02-2.01 0.365-0.718 0.73-1.44 1.11-2.18 0.855-1.71 1.71-3.42 2.56-5.12l5.44-10.9h2c0.258-0.869 0.516-1.74 0.781-2.63 1.24-3.43 2.76-6.18 4.72-9.24 0.913-1.45 0.913-1.45 1.84-2.93 0.82-1.09 0.82-1.09 1.66-2.2h2c0.259-0.732 0.518-1.46 0.785-2.22 1.25-2.86 2.68-4.87 4.65-7.28 1.92-2.39 3.63-4.61 5.19-7.25 1.75-2.87 3.98-4.91 6.38-7.25 0.763-0.949 1.53-1.9 2.31-2.88 1.99-2.45 4.15-4.46 6.56-6.5 2.67-2.27 4.94-4.52 7.12-7.25 3.58-4.22 7.72-7.64 12-11.1 0.677-0.555 1.35-1.11 2.05-1.68 3.14-2.52 6.23-4.82 9.76-6.77 2.65-1.49 4.18-2.62 6.19-4.8 11.7-8.6 24.7-16.7 38.3-22 2.94-1.14 5.83-2.36 8.73-3.6 4.92-2.05 9.85-3.85 14.9-5.44 0.963-0.307 1.93-0.614 2.92-0.93 3.35-1.05 6.71-2.07 10.1-3.07 1.11-0.343 2.22-0.686 3.36-1.04 18.1-5.27 36.2-6.23 55-6.21zm-20.3 1.25v1h5v-1h-5zm-212 176 1 3zm-7 29 1 2zm-3 15 1 3zm-2 16 1 2z" fill="#FDFDFD"/>
<path transform="translate(812,536)" d="m0 0c0.788 0.0208 1.58 0.0416 2.39 0.063 8.3 0.255 15.7 1.41 23.6 3.94 1 0.277 2.01 0.554 3.04 0.84 19.1 5.42 39.2 15.7 53 30.2 1.12 0.946 2.24 1.88 3.38 2.81 11.7 10 22 24.3 28.6 38.2 0.528 1.04 0.528 1.04 1.07 2.11 3.5 7.29 5.66 15.1 7.93 22.9 0.347 1.03 0.694 2.06 1.05 3.12 1.14 4.67 1.27 8.98 1.29 13.8 0.00666 0.946 0.0133 1.89 0.0202 2.87 0.0101 2 0.0148 4 0.0145 6 0.00433 3 0.0406 6 0.0786 9 0.0923 15.6-1.79 30.1-7.76 44.7-0.298 0.743-0.596 1.49-0.902 2.25-2.59 6.25-5.85 11.8-9.79 17.3-0.577 0.86-1.15 1.72-1.75 2.61-3.26 4.81-6.73 9.27-10.6 13.6-1.46 1.63-2.82 3.29-4.18 5-2.64 3.05-5.22 5.39-8.44 7.81h-2c-0.206 0.578-0.413 1.15-0.625 1.75-1.87 3.06-4.39 4.43-7.38 6.25-0.833 0.539-1.67 1.08-2.52 1.63-8.54 5.53-17.1 10.4-26.5 14.4-0.758 0.34-1.52 0.681-2.3 1.03-6.16 2.66-12.3 4.09-18.9 5.36-2.7 0.325-2.7 0.325-3.81 1.61-22.3 3.97-47.2 3.75-69-3-0.628-0.18-1.26-0.359-1.9-0.544-9.41-2.7-18.1-6.18-26.7-10.9-0.808-0.442-1.62-0.884-2.45-1.34-12.5-7.08-22.8-17-32.9-27-0.556-0.551-1.11-1.1-1.68-1.67-7.38-7.41-7.38-7.41-7.38-10.5h-2c-2.3-2.56-3-3.48-3-7-0.66-0.33-1.32-0.66-2-1-1.43-2.23-2.76-4.45-4.06-6.75-0.364-0.621-0.728-1.24-1.1-1.88-1.98-3.47-3.13-6.46-3.83-10.4-0.66-0.33-1.32-0.66-2-1-0.746-1.8-0.746-1.8-1.44-4.16-0.254-0.867-0.509-1.73-0.771-2.63-0.261-0.935-0.522-1.87-0.792-2.83-0.401-1.44-0.401-1.44-0.811-2.9-6.86-25.3-6.61-54.2 3.81-78.5 0.464-1.1 0.928-2.2 1.41-3.33 4.68-10.9 9.85-20.7 17.3-29.9 1.76-2.17 3.34-4.32 4.87-6.64 3.04-4 6.52-6.93 10.4-10.1 1.11-0.949 2.23-1.9 3.34-2.85 1.18-1.01 2.36-2.02 3.54-3.02 0.572-0.489 1.14-0.978 1.73-1.48 4.16-3.53 4.16-3.53 6.39-4.64 0.611-0.459 1.22-0.918 1.85-1.39 11.1-8.29 23.7-14.4 37.1-17.8 2.98-0.725 2.98-0.725 5.38-1.83 15-5.59 33-4.46 48.7-4zm-140 83 1 2zm-9 40 1 3zm0 15 1 4zm3 21 1 3z" fill="#FDFDFD"/>
</svg>
