<?xml version="1.0" encoding="UTF-8"?>
<svg version="1.1" xmlns="http://www.w3.org/2000/svg" width="456" height="456">
<path d="M0 0 C6.85668103 5.99959591 6.85668103 5.99959591 8.25 8.90234375 C9.07219546 10.91442531 9.07219546 10.91442531 11.1328125 11.70703125 C19.1057809 15.7084461 23.36940886 29.90526657 26.21875 37.75390625 C28.81431191 46.23339234 29.21875 52.61127318 29.21875 61.75390625 C-19.62125 61.75390625 -68.46125 61.75390625 -118.78125 61.75390625 C-118.78125 54.1537593 -118.73972019 48.77273453 -116.65625 41.81640625 C-116.43179199 41.04425781 -116.20733398 40.27210938 -115.97607422 39.4765625 C-112.81987766 29.06436766 -107.91087955 19.05955717 -100.78125 10.75390625 C-100.12125 10.75390625 -99.46125 10.75390625 -98.78125 10.75390625 C-98.51699219 10.16480469 -98.25273437 9.57570313 -97.98046875 8.96875 C-91.46511533 -3.06449232 -76.52973326 -9.30797317 -64.15625 -12.99609375 C-63.45193848 -13.20685547 -62.74762695 -13.41761719 -62.02197266 -13.63476562 C-40.71175238 -19.70208622 -17.13491892 -13.83789098 0 0 Z " fill="#FEFEFE" transform="translate(272.78125,255.24609375)"/>
<path d="M0 0 C0.93070313 0.50917969 1.86140625 1.01835937 2.8203125 1.54296875 C3.89925781 2.26419922 3.89925781 2.26419922 5 3 C5 3.66 5 4.32 5 5 C5.59941406 5.27199219 6.19882812 5.54398438 6.81640625 5.82421875 C13.55992266 9.45534297 16.62657576 16.4655002 19.078125 23.40625 C21.91888726 34.48040798 20.5119313 45.01537982 15 55 C12.59967706 58.29987035 10.10862427 61.34428787 7 64 C6.34 64 5.68 64 5 64 C5 64.66 5 65.32 5 66 C-4.25797075 73.71497562 -16.27211838 75.20861262 -27.90576172 74.26171875 C-40.09169415 72.73883235 -48.35542804 66.59393324 -56.13671875 57.50390625 C-57.86485685 55.18160746 -59.05734061 53.08991489 -60.1875 50.4375 C-60.51105469 49.69371094 -60.83460938 48.94992188 -61.16796875 48.18359375 C-64.75979351 38.75716165 -64.2825105 26.67442336 -60.31640625 17.45703125 C-54.67058081 6.91927397 -45.73012739 -0.60574673 -34.3125 -4.3359375 C-22.36232168 -6.73161004 -10.72645509 -6.08289386 0 0 Z " fill="#FEFEFE" transform="translate(250,153)"/>
</svg>
